<svg xmlns="http://www.w3.org/2000/svg" width="99" height="99" viewBox="0 0 1000 1000">
	<path d="M896,0H105C47,0,0,47,0,105v789c0,59,47,106,105,106h790c57,0,105-47,105-105V105C1001,47,954,0,896,0z"/>
	<path fill="#FFFFFF" d="M557.197,385.901c6.696,0.434,16.011-0.898,17.558,8.069c1.509,8.709-8.808,13.378-16.02,14.613 c-16.473,2.821-32.729-2.306-47.067-10.136l-4.088-2.196l-12.182,58.254c23.776,7.268,52.989,9.119,77.69,4.884 c42.208-7.234,80.211-37.213,72.234-83.32c-5.677-32.782-30.032-44.957-61.041-46.5l-16.577-0.852 c-5.624-0.353-14.55,0.121-15.802-7.049c-1.365-7.939,7.239-11.789,13.419-12.848c15.435-2.645,29.938,1.466,43.441,7.585 l10.216-51.26l8.226,47.572l38.56-8.447l22.857,132.156l70.518-12.085l-22.872-132.157l39.183-4.864l-10.861-62.751L616.343,249.97 l2.345,13.531c-20.552-7.869-41.684-9.955-63.859-6.15c-42.208,7.229-79.725,40.035-71.797,85.875 c5.192,29.97,30.925,42.438,59.566,42.54L557.197,385.901z M485.199,416.961l-61.508,10.542l-3.279-18.955l54.3-9.303l-8.681-50.201 l-54.305,9.303l-3.191-18.438l59.449-10.187l-9.126-52.764L328.376,299.32l33.321,192.586l-66.049,11.315 c29.875-7.984,56.636-27.453,50.49-62.958c-4.033-23.311-19.771-36.169-42.418-39.937l-0.266-1.535 c16.309-8.335,21.709-26.14,18.744-43.298c-7.714-44.566-47.353-47.001-85.184-40.522l-82.1,14.07l33.322,192.592l-81.452,13.955 L140.2,728.707l67.944-11.645l-10.062-58.142l36.03-6.174c39.378-6.753,59.829-35.573,53.007-75.006 c-7.569-43.761-39.484-61.983-79.479-58.889l71.152-12.201l33.321,192.594l68.971-11.816l-10.721-61.986l42.895,56.47l78.748-13.489 l70.511-12.079L529.11,463.222l-34.873,5.975L485.199,416.961z M219.292,586.987c2.704,15.62-10.328,19.965-22.678,22.076 l-6.951,1.187l-5.806-33.537l6.693-1.149C202.131,573.576,216.678,571.875,219.292,586.987z M233.135,392.118l-4.783-27.659 l4.888-0.84l7.979-1.364c7.976-1.366,15.927,0.169,17.744,10.671c2.305,13.316-9.1,16.326-19.393,18.092L233.135,392.118z M253.7,463.488l-7.979,1.368l-5.54-32.012l6.951-1.195c11.324-1.938,29.293-5.284,32.087,10.854 C281.965,458.38,265.023,461.547,253.7,463.488z M367.364,579.017l-4.888,0.836l-5.67-32.776l5.404-0.928 c12.351-2.117,22.916-2.345,25.529,12.761C390.217,573.257,378.948,577.039,367.364,579.017z M441.52,612.455 c-4.881-5.221-9.486-7.336-13.837-9.486l-0.262-1.548c24.441-13.409,33.983-27.178,28.889-56.633 c-7.608-43.973-41.003-58.117-79.843-54.865l82.218-14.091l32.657,188.746L441.52,612.455z M627.144,545.843 c-3.643-21.007,10.722-40.604,31.83-44.222c16.215-2.775,31.657,3.804,44.799,12.37l-14.775-73.161 c-16.076-2.516-32.515-2.602-48.727,0.177c-56.873,9.75-93.604,62.451-83.85,118.801c9.52,55.063,60.156,90.432,115.493,80.953 c12.612-2.165,38.768-8.752,48.848-16.286l-10.433-72.581c-9.415,12.955-20.826,22.029-37.297,24.847 C651.93,580.368,630.818,567.098,627.144,545.843z M710.432,493.486l-2.845,29.492l20.584-3.526l0.719,4.103l0.798,4.604 l-12.88,2.211l-2.843,29.493l25.999-4.453c20.544,36.038,60.405,56.632,104.417,49.092c12.614-2.165,38.77-8.753,48.85-16.287 l-6.656-49.224c-21.554,8.698-47.968,13.754-66.832,2.744l50.95-8.724l2.854-29.499l-72.575,12.434 c-0.437-0.978-0.616-2-0.796-3.032l-0.571-3.329l-0.398-2.299l65.111-11.158l2.845-29.499l-60.735,10.403 c14.198-17.46,42.685-22.87,66.072-23.979l-11.034-48.473c-16.074-2.52-32.518-2.606-48.731,0.172 c-45.286,7.763-78.116,43.186-84.282,85.648L710.432,493.486z M704.555,667.61c-7.565,0-15.435,4.847-15.435,13.083 c0,8.143,7.869,12.782,15.435,12.782c7.549,0,15.419-4.64,15.419-12.782C719.974,672.457,712.104,667.61,704.555,667.61z M762.93,664.831h12.839c-1.333,4.633-7.041,6.798-11.488,6.798c-9.21,0-14.596-8.035-14.596-16.583 c0-9.38,5.586-18.036,15.73-18.036c4.563,0,8.598,1.96,10.768,5.978l26.508-9.683c-6.11-13.294-24.74-19.99-38.308-19.99 c-24.538,0-43.276,15.348-43.276,40.597c0,24.929,19.263,39.564,43.073,39.564c12.003,0,24.845-4.751,33.134-13.814 c9.208-9.986,9.105-20.396,9.409-33.165h-43.784v18.335H762.93z M859.831,662.36v-0.627c10.458-3.601,15.112-8.345,15.112-20.192 c0-19.568-14.801-26.989-32.5-26.989h-34.267v77.684h27.742v-24.938h0.514l12.427,24.938h32.714l-16.975-25.241 C863.044,664.626,861.387,663.491,859.831,662.36z M837.89,648.966h-1.971v-13.193h2.173c4.97,0,9.11,0.618,9.11,6.698 C847.202,648.245,842.544,648.966,837.89,648.966z"/>
	<g>
		<path d="M715.922,777.171H990.11c5.418,0,9.891,4.393,9.891,9.876v98.739c0,5.451-4.473,9.891-9.891,9.891H715.922 c-5.484,0-9.891-4.439-9.891-9.891v-98.739C706.031,781.563,710.438,777.171,715.922,777.171z"/>
		<g>
			<path fill="#FFFFFF" d="M750.303,804.092H783.4c8.154,0,14.65,2.365,19.537,7.125c4.439,4.31,6.645,9.487,6.645,15.6 c0,6.144-2.205,11.288-6.514,15.502c-4.891,4.761-11.451,7.126-19.668,7.126h-12.144v19.167h-20.92v-64.52H750.303z M771.256,819.819v13.926h8.669c2.43,0,4.326-0.69,5.709-2.074c1.383-1.382,2.106-3.021,2.106-4.854 c0-1.979-0.659-3.619-1.977-4.984c-1.32-1.352-3.282-2.013-5.839-2.013H771.256z"/>
			<path fill="#FFFFFF" d="M879.195,868.611h-22.624l-10.454-20.969h-7.026v20.969h-20.812v-64.52h33.034 c8.635,0,15.47,2.204,20.487,6.626c4.469,3.956,6.706,8.717,6.706,14.33c0,4.132-1.354,8.007-4.006,11.594 c-2.671,3.57-6.336,6.063-11.001,7.543L879.195,868.611z M839.09,819.819v12.157h8.813c2.428,0,4.324-0.625,5.707-1.849 c1.386-1.204,2.106-2.619,2.106-4.262c0-1.542-0.721-2.958-2.106-4.212c-1.383-1.238-3.279-1.864-5.707-1.864h-8.813V819.819z"/>
			<path fill="#FFFFFF" d="M955.729,835.518c0,12.059-3.604,21.113-10.855,27.161c-6.143,5.146-14.087,7.719-23.914,7.719 c-9.953,0-17.963-2.573-24.011-7.623c-7.219-6.078-10.901-15.132-10.901-27.257c0-11.387,3.617-19.991,10.807-25.716 c6.143-4.921,14.152-7.381,24.075-7.381c9.921,0,17.864,2.428,23.895,7.286C952.125,815.526,955.729,824.131,955.729,835.518z M920.959,854.67c4.101,0,7.19-1.849,9.297-5.629c1.896-3.346,2.846-7.879,2.846-13.523c0-4.891-0.918-8.831-2.784-11.949 c-2.168-3.65-5.258-5.453-9.358-5.453c-4.068,0-7.188,1.803-9.39,5.453c-1.914,3.15-2.864,7.156-2.864,11.949 c0,5.739,0.918,10.243,2.767,13.523C913.579,852.821,916.73,854.67,920.959,854.67z"/>
		</g>
	</g>
</svg>
